{"title":"Contagion.2011.720p.BRRip.x264.aac.mp4.anoXmous","uid":6909067,"size":734290847,"categoryP":"video","categoryS":"hd___movies","magnet":"?xt=urn:btih:2cbc43254bd788b25c759eb06ac63cca6c62738c&amp;dn=Contagion.2011.720p.BRRip.x264.aac.mp4.anoXmous&amp;tr=udp%3A%2F%2Ftracker.openbittorrent.com%3A80&amp;tr=udp%3A%2F%2Fopen.demonii.com%3A1337&amp;tr=udp%3A%2F%2Ftracker.coppersurfer.tk%3A6969&amp;tr=udp%3A%2F%2Fexodus.desync.com%3A6969","seeders":0,"leechers":2,"uploader":"anoXmous","files":-1,"time":1324717493,"description":"Contagion.2011.720p.BRRip.x264.aac.mp4.anoXmous\n\nFormat                           : MPEG-4\nFormat profile                   : Base Media\nCodec ID                         : isom\nFile size                        : 700 MiB\nDuration                         : 1h 46mn\nOverall bit rate mode            : Variable\nOverall bit rate                 : 920 Kbps\n\n\nVideo\nID                               : 1\nFormat                           : AVC\nFormat/Info                      : Advanced Video Codec\nFormat profile                   : &lt;a class=&quot;__cf_email__&quot; href=&quot;/cdn-cgi/l/email-protection&quot; data-cfemail=&quot;d59dbcb2bd9599e1fbe4&quot;&gt;[email&amp;#160;protected]&lt;/a&gt;&lt;script cf-hash='f9e31' type=&quot;text/javascript&quot;&gt;\n/* &lt;![CDATA[ */!function(){try{var t=&quot;currentScript&quot;in document?document.currentScript:function(){for(var t=document.getElementsByTagName(&quot;script&quot;),e=t.length;e--;)if(t[e].getAttribute(&quot;cf-hash&quot;))return t[e]}();if(t&amp;&amp;t.previousSibling){var e,r,n,i,c=t.previousSibling,a=c.getAttribute(&quot;data-cfemail&quot;);if(a){for(e=&quot;&quot;,r=parseInt(a.substr(0,2),16),n=2;a.length-n;n+=2)i=parseInt(a.substr(n,2),16)^r,e+=String.fromCharCode(i);e=document.createTextNode(e),c.parentNode.replaceChild(e,c)}}}catch(u){}}();/* ]]&gt; */&lt;/script&gt;\nFormat settings, CABAC           : Yes\nFormat settings, ReFrames        : 4 frames\nCodec ID                         : avc1\nCodec ID/Info                    : Advanced Video Coding\nDuration                         : 1h 46mn\nBit rate                         : 851 Kbps\nMaximum bit rate                 : 5 482 Kbps\nWidth                            : 1 280 pixels\nHeight                           : 720 pixels\nDisplay aspect ratio             : 16:9\nFrame rate mode                  : Constant\nFrame rate                       : 23.976 fps\nColor space                      : YUV\nChroma subsampling               : 4:2:0\nBit depth                        : 8 bits\nScan type                        : Progressive\nBits/(Pixel*Frame)               : 0.039\nStream size                      : 648 MiB (93%)\nWriting library                  : x264 core 120 r2120 0c7dab9\n\n\nAudio\nID                               : 2\nFormat                           : AAC\nFormat/Info                      : Advanced Audio Codec\nFormat profile                   : LC\nCodec ID                         : 40\nDuration                         : 1h 46mn\nBit rate mode                    : Variable\nBit rate                         : 66.2 Kbps\nMaximum bit rate                 : 92.5 Kbps\nChannel(s)                       : 2 channels\nChannel positions                : Front: L R\nSampling rate                    : 48.0 KHz \nCompression mode                 : Lossy\nStream size                      : 49.8 MiB (7%)\nLanguage                         : English\n\n                              SUB:\nContagion.2011.720p.BRRip.x264.aac.mp4.anoXmous.mp4_eng.srt\nContagion.2011.720p.BRRip.x264.aac.mp4.anoXmous.mp4_swe.srt\n &lt;a href=&quot;\nhttp://www.imdb.com/title/tt1598778/&quot; rel=&quot;nofollow&quot; target=&quot;_NEW&quot;&gt;\nhttp://www.imdb.com/title/tt1598778/&lt;/a&gt;\n\n+++++++++ This work very fine with PSP and XBOX :) ++++++++++","torrent":{"xt":"urn:btih:2cbc43254bd788b25c759eb06ac63cca6c62738c","amp;dn":"Contagion.2011.720p.BRRip.x264.aac.mp4.anoXmous","amp;tr":["udp%3A%2F%2Ftracker.openbittorrent.com%3A80","udp%3A%2F%2Fopen.demonii.com%3A1337","udp%3A%2F%2Ftracker.coppersurfer.tk%3A6969","udp%3A%2F%2Fexodus.desync.com%3A6969"],"infoHash":"2cbc43254bd788b25c759eb06ac63cca6c62738c","infoHashBuffer":{"type":"Buffer","data":[44,188,67,37,75,215,136,178,92,117,158,176,106,198,60,202,108,98,115,140]},"announce":[],"urlList":[]}}